<svg width="24" height="36" viewBox="0 0 24 36" fill="none" xmlns="http://www.w3.org/2000/svg">
<g id="logos:google-maps" clip-path="url(#clip0_37_189)">
<path id="Vector" d="M6.61737 26.2843C7.61238 27.5524 8.51803 28.8882 9.32777 30.282C10.0191 31.5928 10.3073 32.4816 10.8125 34.061C11.1223 34.9336 11.4024 35.1941 12.0044 35.1941C12.6605 35.1941 12.9581 34.751 13.1881 34.0658C13.6657 32.5742 14.0404 31.4359 14.6316 30.3603C15.7916 28.2838 17.2331 26.4385 18.6495 24.665C19.0329 24.1631 21.512 21.239 22.6281 18.9317C22.6281 18.9317 23.9999 16.3972 23.9999 12.8575C23.9999 9.5464 22.6471 7.25 22.6471 7.25L18.7522 8.29306L16.3869 14.5228L15.8017 15.3818L15.6847 15.5375L15.5291 15.7323L15.2559 16.0434L14.8656 16.4337L12.7593 18.1497L7.49337 21.1902L6.61737 26.2843Z" fill="#34A853"/>
<path id="Vector_2" d="M1.18243 18.5055C2.46765 21.4411 4.94602 24.0216 6.62282 26.2862L15.5291 15.7362C15.5291 15.7362 14.2744 17.3772 11.9983 17.3772C9.46306 17.3772 7.41491 15.3527 7.41491 12.7999C7.41491 11.0493 8.4681 9.84668 8.4681 9.84668L2.42227 11.4667L1.18243 18.5055Z" fill="#FBBC04"/>
<path id="Vector_3" d="M15.6286 1.33936C18.5866 2.29307 21.1184 4.29528 22.6498 7.24774L15.5318 15.73C15.5318 15.73 16.585 14.5057 16.585 12.7659C16.585 10.1537 14.3854 8.20221 12.0091 8.20221C9.76199 8.20221 8.47144 9.84048 8.47144 9.84048V4.49675L15.6286 1.33936Z" fill="#4285F4"/>
<path id="Vector_4" d="M2.81396 5.08733C4.58068 2.97356 7.68942 0.796875 11.9753 0.796875C14.0546 0.796875 15.6212 1.34278 15.6212 1.34278L8.46473 9.84522H3.39428L2.81396 5.08733Z" fill="#1A73E8"/>
<path id="Vector_5" d="M1.18243 18.5055C1.18243 18.5055 6.10352e-05 16.1901 6.10352e-05 12.8357C6.10352e-05 9.66539 1.23249 6.89415 2.81396 5.0874L8.46875 9.84604L1.18243 18.5055Z" fill="#EA4335"/>
</g>
<defs>
<clipPath id="clip0_37_189">
<rect width="24" height="34.4061" fill="white" transform="translate(0 0.796875)"/>
</clipPath>
</defs>
</svg>
