<svg width="48" height="48" viewBox="0 0 48 48" fill="none" xmlns="http://www.w3.org/2000/svg">
<g id="explore_nearby">
<mask id="mask0_37_207" style="mask-type:alpha" maskUnits="userSpaceOnUse" x="0" y="0" width="48" height="48">
<rect id="Bounding box" width="48" height="48" fill="#D9D9D9"/>
</mask>
<g mask="url(#mask0_37_207)">
<path id="explore_nearby_2" d="M23.9999 44.0005C21.2333 44.0005 18.6333 43.4755 16.1999 42.4255C13.7666 41.3755 11.6499 39.9505 9.84994 38.1505C8.04994 36.3505 6.62494 34.2338 5.57494 31.8005C4.52494 29.3672 3.99994 26.7672 3.99994 24.0005C3.99994 21.2338 4.52494 18.6338 5.57494 16.2005C6.62494 13.7672 8.04994 11.6505 9.84994 9.85049C11.6499 8.05049 13.7666 6.62549 16.1999 5.57549C18.6333 4.52549 21.2333 4.00049 23.9999 4.00049C26.7666 4.00049 29.3666 4.52549 31.7999 5.57549C34.2333 6.62549 36.3499 8.05049 38.1499 9.85049C39.9499 11.6505 41.3749 13.7672 42.4249 16.2005C43.4749 18.6338 43.9999 21.2338 43.9999 24.0005C43.9999 26.7672 43.4749 29.3672 42.4249 31.8005C41.3749 34.2338 39.9499 36.3505 38.1499 38.1505C36.3499 39.9505 34.2333 41.3755 31.7999 42.4255C29.3666 43.4755 26.7666 44.0005 23.9999 44.0005ZM23.9999 35.0005C25.4999 33.5005 26.8333 31.9505 27.9999 30.3505C28.9999 28.9838 29.9166 27.4838 30.7499 25.8505C31.5833 24.2172 31.9999 22.6005 31.9999 21.0005C31.9999 18.8005 31.2166 16.9172 29.6499 15.3505C28.0833 13.7838 26.1999 13.0005 23.9999 13.0005C21.7999 13.0005 19.9166 13.7838 18.3499 15.3505C16.7833 16.9172 15.9999 18.8005 15.9999 21.0005C15.9999 22.6005 16.4166 24.2172 17.2499 25.8505C18.0833 27.4838 18.9999 28.9838 19.9999 30.3505C21.1666 31.9505 22.4999 33.5005 23.9999 35.0005ZM23.9999 24.0005C23.1666 24.0005 22.4583 23.7088 21.8749 23.1255C21.2916 22.5422 20.9999 21.8338 20.9999 21.0005C20.9999 20.1672 21.2916 19.4588 21.8749 18.8755C22.4583 18.2922 23.1666 18.0005 23.9999 18.0005C24.8333 18.0005 25.5416 18.2922 26.1249 18.8755C26.7083 19.4588 26.9999 20.1672 26.9999 21.0005C26.9999 21.8338 26.7083 22.5422 26.1249 23.1255C25.5416 23.7088 24.8333 24.0005 23.9999 24.0005Z" fill="#FAFAFA"/>
</g>
</g>
</svg>
